<svg width="24" height="24" viewBox="0 0 24 24" fill="none" xmlns="http://www.w3.org/2000/svg">
<path d="M15.75 15.375C15.75 16.1133 15.2578 16.7461 14.625 16.9922V19.3125H14.9062C15.3633 19.3125 15.75 19.6992 15.75 20.1562C15.75 20.6484 15.3633 21 14.9062 21H2.8125C1.23047 21 0 19.7695 0 18.1875V5.8125C0 4.26562 1.23047 3 2.8125 3H14.0625C14.9766 3 15.75 3.77344 15.75 4.6875V15.375ZM12.9375 19.3125V17.0625H2.8125C2.17969 17.0625 1.6875 17.5898 1.6875 18.1875C1.6875 18.8203 2.17969 19.3125 2.8125 19.3125H12.9375ZM14.0625 15.375V4.6875H2.8125C2.17969 4.6875 1.6875 5.21484 1.6875 5.8125V15.6211C2.00391 15.4805 2.39062 15.375 2.8125 15.375H14.0625ZM5.34375 8.625C4.85156 8.625 4.5 8.27344 4.5 7.78125C4.5 7.32422 4.85156 6.9375 5.34375 6.9375H11.5312C11.9883 6.9375 12.375 7.32422 12.375 7.78125C12.375 8.27344 11.9883 8.625 11.5312 8.625H5.34375ZM5.34375 11.4375C4.85156 11.4375 4.5 11.0859 4.5 10.5938C4.5 10.1367 4.85156 9.75 5.34375 9.75H11.5312C11.9883 9.75 12.375 10.1367 12.375 10.5938C12.375 11.0859 11.9883 11.4375 11.5312 11.4375H5.34375Z" fill="#414651"/>
</svg>
