<svg width="24" height="24" viewBox="0 0 24 24" fill="none" xmlns="http://www.w3.org/2000/svg">
<path d="M19.6484 17.1016C20.0703 17.5703 20.0703 18.2734 19.6484 18.6953C19.1797 19.1641 18.4766 19.1641 18.0547 18.6953L12.5234 13.1172L6.94531 18.6953C6.47656 19.1641 5.77344 19.1641 5.35156 18.6953C4.88281 18.2734 4.88281 17.5703 5.35156 17.1016L10.9297 11.5234L5.35156 5.94531C4.88281 5.47656 4.88281 4.77344 5.35156 4.35156C5.77344 3.88281 6.47656 3.88281 6.89844 4.35156L12.5234 9.97656L18.1016 4.39844C18.5234 3.92969 19.2266 3.92969 19.6484 4.39844C20.1172 4.82031 20.1172 5.52344 19.6484 5.99219L14.0703 11.5234L19.6484 17.1016Z" fill="#181D27"/>
</svg>
