<svg width="24" height="24" viewBox="0 0 24 24" fill="none" xmlns="http://www.w3.org/2000/svg">
<path d="M19.9453 11.0728C20.2969 11.3892 20.332 11.9165 20.0508 12.2681C19.7344 12.6196 19.207 12.6548 18.8555 12.3735L18.0117 11.6353V18.1743C18.0117 19.7563 16.7461 20.9868 15.1992 20.9868H5.07422C3.49219 20.9868 2.26172 19.7563 2.26172 18.1743V11.6353L1.38281 12.3735C1.03125 12.6548 0.503906 12.6196 0.1875 12.2681C-0.09375 11.9165 -0.0585938 11.3892 0.292969 11.0728L9.57422 3.19775C9.89062 2.95166 10.3477 2.95166 10.6641 3.19775L19.9453 11.0728ZM5.07422 19.2993H6.76172V13.9556C6.76172 13.1821 7.35938 12.5493 8.16797 12.5493H12.1055C12.8789 12.5493 13.5117 13.1821 13.5117 13.9556V19.2993H15.1992C15.7969 19.2993 16.3242 18.8071 16.3242 18.1743V10.1938L10.1367 4.95557L3.94922 10.1938V18.1743C3.94922 18.8071 4.44141 19.2993 5.07422 19.2993ZM8.44922 19.2993H11.8242V14.2368H8.44922V19.2993Z" fill="white"/>
</svg>
