<svg width="24" height="24" viewBox="0 0 24 24" fill="none" xmlns="http://www.w3.org/2000/svg">
<path d="M6.75 19.0312C6.75 19.5234 6.36328 19.875 5.90625 19.875H3.375C1.47656 19.875 0 18.3984 0 16.5V7.5C0 5.63672 1.47656 4.125 3.375 4.125H5.90625C6.36328 4.125 6.75 4.51172 6.75 4.96875C6.75 5.46094 6.36328 5.8125 5.90625 5.8125H3.375C2.42578 5.8125 1.6875 6.58594 1.6875 7.5V16.5C1.6875 17.4492 2.42578 18.1875 3.375 18.1875H5.90625C6.36328 18.1875 6.75 18.5742 6.75 19.0312ZM17.7539 11.4375L13.2891 6.65625C12.9727 6.30469 12.4453 6.30469 12.0938 6.62109C11.7422 6.9375 11.7422 7.46484 12.0586 7.81641L15.1875 11.1562H6.43359C5.97656 11.1562 5.625 11.543 5.625 12C5.625 12.4922 5.97656 12.8438 6.43359 12.8438H15.1523L11.9883 16.2188C11.6719 16.5703 11.6719 17.0977 12.0234 17.4141C12.2344 17.5547 12.4453 17.625 12.6211 17.625C12.832 17.625 13.043 17.5547 13.2188 17.3789L17.6836 12.5977C18.0703 12.2812 18.0703 11.7539 17.7539 11.4375Z" fill="#414651"/>
</svg>
