<svg width="24" height="24" viewBox="0 0 24 24" fill="none" xmlns="http://www.w3.org/2000/svg">
<path d="M16.875 14.2759C17.6836 14.6275 18.1406 15.5064 17.8945 16.3853L17.1562 19.5845C17.0156 20.4282 16.2773 20.9907 15.3984 20.9907C6.89062 20.9907 0 14.1001 0 5.5923C0 4.71339 0.5625 3.97511 1.40625 3.79933L4.60547 3.06105C5.48438 2.85011 6.36328 3.30714 6.71484 4.11573L8.22656 7.63136C8.54297 8.36964 8.29688 9.24855 7.69922 9.77589L6.50391 10.7251C7.41797 12.272 8.71875 13.5728 10.3008 14.4868L11.25 13.3267C11.7773 12.6939 12.6562 12.4478 13.4297 12.7993L16.875 14.2759ZM16.2773 15.9985C16.3125 15.9282 16.2773 15.8579 16.207 15.7876L12.7617 14.311C12.6914 14.2759 12.6211 14.311 12.5859 14.3462L11.1797 16.0689C10.9336 16.3853 10.4766 16.4556 10.125 16.2798C7.76953 15.1196 5.83594 13.186 4.67578 10.8306C4.5 10.479 4.60547 10.0571 4.88672 9.81105L6.60938 8.4048C6.67969 8.36964 6.67969 8.29933 6.64453 8.22901L5.16797 4.7837C5.13281 4.74855 5.09766 4.67823 5.02734 4.67823L4.99219 4.71339L1.79297 5.45167C1.72266 5.45167 1.65234 5.52198 1.65234 5.5923C1.65234 13.1509 7.83984 19.3032 15.3984 19.3032C15.4688 19.3032 15.5391 19.2329 15.5391 19.1978L16.2773 15.9985Z" fill="#414651"/>
</svg>
