<svg width="25" height="25" viewBox="0 0 25 25" fill="none" xmlns="http://www.w3.org/2000/svg">
<path d="M22.4336 12.7545H12.6555V2.84252C12.6555 2.72056 12.5571 2.62078 12.4368 2.62078H11.7258C10.2911 2.61929 8.87012 2.90501 7.54453 3.46152C6.21895 4.01804 5.01482 4.8344 4.00122 5.86378C3.00327 6.87226 2.2083 8.06785 1.6606 9.38396C1.09185 10.7505 0.802002 12.2001 0.802002 13.6969C0.802002 15.1936 1.09185 16.6405 1.6606 18.007C2.21021 19.3236 2.99771 20.5099 4.00122 21.5272C5.00474 22.5444 6.17231 23.3427 7.47388 23.8999C8.81957 24.4786 10.2668 24.7756 11.7286 24.773C13.1633 24.7745 14.5843 24.4887 15.9099 23.9322C17.2354 23.3757 18.4396 22.5593 19.4532 21.53C20.4567 20.5127 21.2442 19.3292 21.7938 18.0098C22.3647 16.6457 22.6577 15.1787 22.6551 13.6969V12.9762C22.6524 12.8542 22.554 12.7545 22.4336 12.7545ZM24.8372 11.2161L24.7661 10.4345C24.5336 7.88442 23.418 5.4785 21.6188 3.66298C19.8213 1.84236 17.4525 0.715814 14.9223 0.478182L14.1485 0.406115C14.02 0.395028 13.9106 0.494813 13.9106 0.625087V11.2605C13.9106 11.3824 14.009 11.4822 14.1293 11.4822L24.6184 11.4545C24.7469 11.4517 24.8481 11.3436 24.8372 11.2161Z" fill="#9D90FA"/>
</svg>
