<svg width="20" height="20" viewBox="0 0 20 20" fill="none" xmlns="http://www.w3.org/2000/svg">
<path d="M15.9609 11.4102C16.418 11.5508 16.6641 12.0078 16.5234 12.4648C15.5391 15.8047 12.4453 18.125 8.96484 18.125C6.1875 18.125 3.62109 16.6133 2.21484 14.2578V17.8438C2.21484 18.3359 1.86328 18.6875 1.37109 18.6875C0.914062 18.6875 0.527344 18.3359 0.527344 17.8438V12.2188C0.527344 11.7617 0.914062 11.375 1.37109 11.375H6.99609C7.48828 11.375 7.83984 11.7617 7.83984 12.2188C7.83984 12.7109 7.45312 13.0625 6.99609 13.0625H3.44531C4.5 15.1016 6.60938 16.4375 8.96484 16.4375C11.707 16.4375 14.168 14.6094 14.9062 11.9727C15.0469 11.5156 15.5039 11.2695 15.9609 11.4102ZM16.5938 1.8125C17.0508 1.8125 17.4375 2.19922 17.4375 2.65625V8.28125C17.4375 8.77344 17.0508 9.125 16.5938 9.125H10.9688C10.4766 9.125 10.125 8.77344 10.125 8.28125C10.125 7.82422 10.4766 7.4375 10.9688 7.4375H14.4844C13.4297 5.43359 11.3203 4.0625 9 4.0625C6.25781 4.0625 3.79688 5.92578 3.02344 8.52734C2.91797 8.98438 2.46094 9.23047 2.00391 9.08984C1.54688 8.98438 1.30078 8.49219 1.40625 8.07031C2.39062 4.73047 5.51953 2.375 9 2.375C11.7773 2.375 14.3438 3.92188 15.75 6.27734V2.65625C15.75 2.19922 16.1016 1.8125 16.5938 1.8125Z" fill="#414651"/>
</svg>
