<svg width="24" height="24" viewBox="0 0 24 24" fill="none" xmlns="http://www.w3.org/2000/svg">
<path d="M17.7188 19.8086C18.0703 20.1602 18.0703 20.6875 17.7188 21.0039C17.5781 21.1797 17.3672 21.25 17.1562 21.25C16.9102 21.25 16.6992 21.1797 16.5234 21.0039L11.8125 16.293C10.5469 17.3125 8.96484 17.875 7.27734 17.875C3.26953 17.875 0 14.6055 0 10.5625C0 6.55469 3.23438 3.25 7.27734 3.25C11.2852 3.25 14.5898 6.55469 14.5898 10.5625C14.5898 12.2852 14.0273 13.8672 13.0078 15.0977L17.7188 19.8086ZM1.6875 10.5625C1.6875 13.6914 4.18359 16.1875 7.3125 16.1875C10.4062 16.1875 12.9375 13.6914 12.9375 10.5625C12.9375 7.46875 10.4062 4.9375 7.3125 4.9375C4.18359 4.9375 1.6875 7.46875 1.6875 10.5625Z" fill="#414651"/>
</svg>
