<svg width="24" height="24" viewBox="0 0 24 24" fill="none" xmlns="http://www.w3.org/2000/svg">
<path d="M5.31586 12C5.31586 10.1367 6.79242 8.625 8.69086 8.625C10.5541 8.625 12.0659 10.1367 12.0659 12C12.0659 13.8633 10.5541 15.375 8.69086 15.375C6.79242 15.375 5.31586 13.8633 5.31586 12ZM8.69086 10.3125C7.74164 10.3125 7.00336 11.0859 7.00336 12C7.00336 12.9492 7.74164 13.6875 8.69086 13.6875C9.60492 13.6875 10.3784 12.9492 10.3784 12C10.3784 11.0859 9.60492 10.3125 8.69086 10.3125ZM9.99164 3C10.7651 3 11.433 3.5625 11.6088 4.30078L11.8901 5.46094C12.2065 5.60156 12.4877 5.77734 12.7338 5.95312L13.894 5.60156C14.6323 5.39062 15.4409 5.70703 15.8276 6.375L17.1284 8.66016C17.5151 9.32812 17.3745 10.1719 16.812 10.6992L15.9682 11.5078C15.9682 11.6836 16.0034 11.8594 16.0034 12C16.0034 12.1758 15.9682 12.3516 15.9682 12.4922L16.812 13.3359C17.3745 13.8633 17.5151 14.707 17.1284 15.375L15.8276 17.6602C15.4409 18.3281 14.6323 18.6445 13.894 18.4336L12.7338 18.082C12.4877 18.2578 12.2065 18.4336 11.8901 18.5742L11.6088 19.7344C11.433 20.4727 10.7651 21 9.99164 21H7.35492C6.58148 21 5.91352 20.4727 5.73773 19.7344L5.45648 18.5742C5.14008 18.4336 4.85883 18.2578 4.61273 18.082L3.45258 18.4336C2.7143 18.6445 1.9057 18.3281 1.51898 17.6602L0.218203 15.375C-0.168515 14.707 -0.0278903 13.8633 0.53461 13.3359L1.37836 12.4922C1.37836 12.3516 1.37836 12.1758 1.37836 12C1.37836 11.8594 1.37836 11.6836 1.37836 11.5078L0.53461 10.6992C-0.0278903 10.1719 -0.168515 9.32812 0.218203 8.66016L1.51898 6.375C1.9057 5.70703 2.7143 5.39062 3.45258 5.60156L4.61273 5.95312C4.85883 5.77734 5.14008 5.60156 5.45648 5.46094L5.73773 4.30078C5.91352 3.5625 6.58148 3 7.35492 3H9.99164ZM6.89789 6.65625L6.51117 6.83203C6.05414 7.00781 5.63227 7.25391 5.2807 7.53516L4.92914 7.81641L2.99555 7.21875L1.69477 9.50391L3.13617 10.875L3.10102 11.2969C3.06586 11.543 3.06586 11.7891 3.06586 12C3.06586 12.2461 3.06586 12.4922 3.10102 12.7383L3.13617 13.1602L1.69477 14.5312L2.99555 16.8164L4.92914 16.2188L5.2807 16.5C5.63227 16.7812 6.05414 17.0273 6.51117 17.2031L6.89789 17.3789L7.35492 19.3125H9.99164L10.4487 17.3789L10.8354 17.2031C11.2924 17.0273 11.7143 16.7812 12.0659 16.5L12.4174 16.2188L14.351 16.8164L15.6518 14.5312L14.2104 13.1602L14.2455 12.7383C14.2807 12.4922 14.3159 12.2461 14.3159 12C14.3159 11.7891 14.2807 11.543 14.2455 11.2969L14.2104 10.875L15.6518 9.50391L14.351 7.21875L12.4174 7.81641L12.0659 7.53516C11.7143 7.25391 11.2924 7.00781 10.8354 6.83203L10.4487 6.65625L9.99164 4.6875H7.35492L6.89789 6.65625Z" fill="#414651"/>
</svg>
